<svg width="68" height="27" viewBox="0 0 68 27" fill="none" xmlns="http://www.w3.org/2000/svg">
<path d="M67.4309 27V0H0.474609V27H67.4309ZM27.4369 2.61L22.7734 24.34H15.5235L10.9599 9.34H10.9L7.90421 24.34H2.36197L7.02544 2.61H14.2953L18.769 17.68H18.8289L21.8946 2.61H27.4369ZM48.1778 2.61L43.6142 24.34H37.7724L39.7097 15H32.7994L30.8621 24.31H25.0203L29.5539 2.58H35.4257L33.7081 10.89H40.6084L42.326 2.58L48.1778 2.61ZM64.9644 3.2L63.5563 7.53C62.0479 6.83683 60.4023 6.49494 58.7431 6.53C56.4363 6.53 54.5589 6.87 54.5589 8.62C54.5589 11.7 63.0271 10.55 63.0271 17.15C63.0271 23.15 57.4349 24.71 52.372 24.71C50.0806 24.6541 47.8084 24.2771 45.6214 23.59L46.9995 19.17C48.6605 20.0225 50.5058 20.4519 52.372 20.42C54.1795 20.42 57.0255 20.07 57.0255 17.83C57.0255 14.34 48.5573 15.65 48.5573 9.52C48.5573 3.91 53.4904 2.23 58.2737 2.23C60.5471 2.13409 62.818 2.47349 64.9644 3.23V3.2Z" fill="white"/>
</svg>
